<?xml version="1.0" standalone="no"?>
<!DOCTYPE svg PUBLIC "-//W3C//DTD SVG 20010904//EN"
 "http://www.w3.org/TR/2001/REC-SVG-20010904/DTD/svg10.dtd">
<svg version="1.0" xmlns="http://www.w3.org/2000/svg"
 width="375.000000pt" height="375.000000pt" viewBox="0 0 375.000000 375.000000"
 preserveAspectRatio="xMidYMid meet">

<g transform="translate(0.000000,375.000000) scale(0.100000,-0.100000)"
fill="#000000" stroke="none">
<path d="M965 2688 c-478 -208 -879 -388 -890 -399 -13 -13 -20 -33 -20 -59 0
-53 28 -79 130 -124 l80 -35 5 -673 c3 -370 9 -681 14 -691 9 -20 56 -47 81
-47 25 0 72 27 81 47 5 10 11 302 14 649 l5 630 112 -49 113 -50 0 -343 c0
-342 0 -343 23 -367 25 -28 1125 -507 1163 -507 38 0 1136 478 1162 506 22 25
22 26 22 368 l0 343 297 129 c164 71 306 137 315 146 42 42 29 117 -24 144
-15 8 -412 183 -881 389 -685 302 -860 375 -892 374 -29 -1 -276 -104 -910
-381z m1672 -143 c403 -175 732 -320 730 -321 -1 -1 -336 -146 -744 -322
l-742 -321 -740 322 c-408 177 -741 324 -741 327 0 11 1466 639 1485 636 11
-1 350 -146 752 -321z m-1220 -969 c249 -108 458 -196 465 -196 7 0 234 96
503 213 l490 213 3 -250 c1 -137 -1 -253 -6 -258 -9 -9 -979 -428 -991 -428
-5 0 -227 95 -493 211 -265 116 -489 213 -495 216 -10 4 -13 65 -13 259 l0
253 43 -18 c23 -10 245 -107 494 -215z"/>
</g>
</svg>
