<svg xmlns="http://www.w3.org/2000/svg" xmlns:xlink="http://www.w3.org/1999/xlink" contentStyleType="text/css" height="170px" preserveAspectRatio="none" style="width:1342px;height:170px;background:#FFFFFF;" version="1.1" viewBox="0 0 1342 170" width="1342px" zoomAndPan="magnify"><defs/><g><!--entity c1--><g id="elem_c1"><ellipse cx="24.8369" cy="54.5" fill="#F1F1F1" rx="8" ry="8" style="stroke:#181818;stroke-width:0.5;"/><path d="M24.8369,62.5 L24.8369,89.5 M11.8369,70.5 L37.8369,70.5 M24.8369,89.5 L11.8369,104.5 M24.8369,89.5 L37.8369,104.5 " fill="none" style="stroke:#181818;stroke-width:0.5;"/><text fill="#000000" font-family="sans-serif" font-size="14" lengthAdjust="spacing" textLength="37.6738" x="6" y="120.9659">Client</text></g><!--entity f1--><g id="elem_f1"><rect fill="#F1F1F1" height="157.4754" rx="2.5" ry="2.5" style="stroke:#181818;stroke-width:0.5;" width="315.6028" x="222" y="7"/><text fill="#000000" font-family="sans-serif" font-size="14" font-style="italic" lengthAdjust="spacing" textLength="129.0795" x="315.2617" y="31.9659">https://mon-site.com</text><text fill="#000000" font-family="sans-serif" font-size="14" lengthAdjust="spacing" textLength="3.64" x="374.9814" y="70.1018">&#160;</text><text fill="#000000" font-family="sans-serif" font-size="14" lengthAdjust="spacing" textLength="127.8335" x="312.8847" y="89.1697">Affiche les donn&#233;es</text><text fill="#000000" font-family="sans-serif" font-size="14" lengthAdjust="spacing" textLength="289.6028" x="232" y="108.2376">Il en existe autant d'instances que de clients</text><text fill="#000000" font-family="sans-serif" font-size="14" lengthAdjust="spacing" textLength="3.64" x="374.9814" y="127.3055">&#160;</text><text fill="#000000" font-family="sans-serif" font-size="14" lengthAdjust="spacing" textLength="98.8956" x="327.3536" y="146.3734">HTML / CSS / JS</text><line style="stroke:#181818;stroke-width:0.5;" x1="223" x2="345.6066" y1="45.6019" y2="45.6019"/><text fill="#000000" font-family="sans-serif" font-size="14" font-weight="bold" lengthAdjust="spacing" textLength="68.3897" x="345.6066" y="50.5339">Front-End</text><line style="stroke:#181818;stroke-width:0.5;" x1="413.9963" x2="536.6028" y1="45.6019" y2="45.6019"/></g><!--entity b1--><g id="elem_b1"><rect fill="#F1F1F1" height="157.4754" rx="2.5" ry="2.5" style="stroke:#181818;stroke-width:0.5;" width="254.9971" x="694" y="7"/><text fill="#000000" font-family="sans-serif" font-size="14" font-style="italic" lengthAdjust="spacing" textLength="153.7334" x="744.6318" y="31.9659">https://mon-site.com/api</text><text fill="#000000" font-family="sans-serif" font-size="14" lengthAdjust="spacing" textLength="3.64" x="816.6786" y="70.1018">&#160;</text><text fill="#000000" font-family="sans-serif" font-size="14" lengthAdjust="spacing" textLength="120.3575" x="758.3198" y="89.1697">Traite les donn&#233;es</text><text fill="#000000" font-family="sans-serif" font-size="14" lengthAdjust="spacing" textLength="228.9971" x="704" y="108.2376">Il n'en existe qu'une seule instance</text><text fill="#000000" font-family="sans-serif" font-size="14" lengthAdjust="spacing" textLength="3.64" x="816.6786" y="127.3055">&#160;</text><text fill="#000000" font-family="sans-serif" font-size="14" lengthAdjust="spacing" textLength="139.2015" x="748.8978" y="146.3734">PHP / Java / Go / Rust</text><line style="stroke:#181818;stroke-width:0.5;" x1="695" x2="789.4247" y1="45.6019" y2="45.6019"/><text fill="#000000" font-family="sans-serif" font-size="14" font-weight="bold" lengthAdjust="spacing" textLength="64.1477" x="789.4247" y="50.5339">Back-End</text><line style="stroke:#181818;stroke-width:0.5;" x1="853.5724" x2="947.9971" y1="45.6019" y2="45.6019"/></g><!--entity db1--><g id="elem_db1"><rect fill="#F1F1F1" height="119.3396" rx="2.5" ry="2.5" style="stroke:#181818;stroke-width:0.5;" width="241.5152" x="1095" y="26"/><text fill="#000000" font-family="sans-serif" font-size="14" font-style="italic" lengthAdjust="spacing" textLength="179.0313" x="1126.2419" y="50.9659">mon-serveur.prive.entreprise</text><text fill="#000000" font-family="sans-serif" font-size="14" lengthAdjust="spacing" textLength="3.64" x="1210.9376" y="89.1018">&#160;</text><text fill="#000000" font-family="sans-serif" font-size="14" lengthAdjust="spacing" textLength="125.6775" x="1149.9188" y="108.1697">Stocke les donn&#233;es</text><text fill="#000000" font-family="sans-serif" font-size="14" lengthAdjust="spacing" textLength="215.5152" x="1105" y="127.2376">PostGreSQL / MySQL / MongoDB</text><line style="stroke:#181818;stroke-width:0.5;" x1="1096" x2="1157.2868" y1="64.6019" y2="64.6019"/><text fill="#000000" font-family="sans-serif" font-size="14" font-weight="bold" lengthAdjust="spacing" textLength="116.9416" x="1157.2868" y="69.5339">Base de donn&#233;es</text><line style="stroke:#181818;stroke-width:0.5;" x1="1274.2284" x2="1335.5152" y1="64.6019" y2="64.6019"/></g><!--link c1 to f1--><g id="link_c1_f1"><path d="M44.48,85.5 C78.03,85.5 145.96,85.5 215.81,85.5 " fill="none" id="c1-to-f1" style="stroke:#181818;stroke-width:1.0;"/><polygon fill="#181818" points="221.81,85.5,212.81,81.5,216.81,85.5,212.81,89.5,221.81,85.5" style="stroke:#181818;stroke-width:1.0;"/><text fill="#000000" font-family="sans-serif" font-size="13" lengthAdjust="spacing" textLength="116.0641" x="75" y="81.397">Actions utilisateurs</text></g><!--reverse link c1 to f1--><g id="link_c1_f1"><path d="M49.2643,101.8617 C57.8543,107.2817 63.46,109.74 74,112.5 C121.18,124.86 173.72,124.89 221.72,119.84 " fill="none" id="c1-backto-f1" style="stroke:#181818;stroke-width:1.0;stroke-dasharray:7.0,7.0;"/><polygon fill="#181818" points="44.19,98.66,49.667,106.8455,48.4186,101.3281,53.936,100.0797,44.19,98.66" style="stroke:#181818;stroke-width:1.0;"/><text fill="#000000" font-family="sans-serif" font-size="13" lengthAdjust="spacing" textLength="92.1181" x="87" y="108.397">Retours visuels</text></g><!--link f1 to b1--><g id="link_f1_b1"><path d="M538.12,85.5 C589.25,85.5 639.32,85.5 687.92,85.5 " fill="none" id="f1-to-b1" style="stroke:#181818;stroke-width:1.0;"/><polygon fill="#181818" points="693.92,85.5,684.92,81.5,688.92,85.5,684.92,89.5,693.92,85.5" style="stroke:#181818;stroke-width:1.0;"/><text fill="#000000" font-family="sans-serif" font-size="13" lengthAdjust="spacing" textLength="92.3651" x="570" y="81.397">Requ&#234;tes HTTP</text></g><!--reverse link f1 to b1--><g id="link_f1_b1"><path d="M544.1046,111.1614 C585.0646,114.9414 623.18,115.99 664,112.5 C673.75,111.66 683.81,110.54 693.9,109.23 " fill="none" id="f1-backto-b1" style="stroke:#181818;stroke-width:1.0;stroke-dasharray:7.0,7.0;"/><polygon fill="#181818" points="538.13,110.61,546.7243,115.4201,543.1088,111.0695,547.4595,107.454,538.13,110.61" style="stroke:#181818;stroke-width:1.0;"/><text fill="#000000" font-family="sans-serif" font-size="13" lengthAdjust="spacing" textLength="94.4321" x="569" y="108.397">R&#233;ponses HTTP</text></g><!--link b1 to db1--><g id="link_b1_db1"><path d="M949.12,85.5 C995.83,85.5 1042.59,85.5 1088.73,85.5 " fill="none" id="b1-to-db1" style="stroke:#181818;stroke-width:1.0;"/><polygon fill="#181818" points="1094.73,85.5,1085.73,81.5,1089.73,85.5,1085.73,89.5,1094.73,85.5" style="stroke:#181818;stroke-width:1.0;"/><text fill="#000000" font-family="sans-serif" font-size="13" lengthAdjust="spacing" textLength="84.5131" x="980" y="81.397">Requ&#234;tes SQL</text></g><!--reverse link b1 to db1--><g id="link_b1_db1"><path d="M955.0501,110.0025 C965.1401,111.3125 969.25,111.66 979,112.5 C1017.08,115.76 1026.93,115.9 1065,112.5 C1074.75,111.63 1084.82,110.45 1094.9,109.06 " fill="none" id="b1-backto-db1" style="stroke:#181818;stroke-width:1.0;stroke-dasharray:7.0,7.0;"/><polygon fill="#181818" points="949.1,109.23,957.5101,114.3555,954.0584,109.8738,958.5401,106.4221,949.1,109.23" style="stroke:#181818;stroke-width:1.0;"/><text fill="#000000" font-family="sans-serif" font-size="13" lengthAdjust="spacing" textLength="54.314" x="995" y="108.397">Donn&#233;es</text></g><!--SRC=[ZPB1JYCn38RlynHMBvKgTKPSEI0LMEYkG2gTELQgqeodZPecqzYfs0llmxv6NmmdC8BTlN1nelos_ozEB7OCx26OxOwXDG4r6-yAsXlNgw0Eq6AdekK6dtbcpTOTq35e2HYAGcds0KOtriZ121I1lf3JRSePLTMEkQVBb-gbEdWt9SDOQd-egfLRhoUJk-0TJt-uTZ9PhrTkvMPTP_GEmI91wvqxloAjt4yBw02V3J62YgoaTpisZcId9VCOKI11PmPAVURDumDKS5FN4d_LcQlx1fVgpS1shVJ-AreJb6JzJ-R6dsp7E8uEWJ1QX84l5I_cYmIYJagMUozX6UbzN9klM1a6mmbZAFjWJbYA452sX9zWbAyxK0o0DNkz_nTmuOdl0zPFQHoFlpzMxxR-zZhRjybVNy3qIWPq2RFy-0IHZJMaM42ewBAy4Nc9ntZ-ms8nRvf5iSb2-xSY7gcYZEML_8Mai9SkS38KqL8gobgoMvvVUx4R-hM3bZhUVbpY3G00]--></g></svg>