<?xml version="1.0" encoding="us-ascii" standalone="no"?><svg xmlns="http://www.w3.org/2000/svg" xmlns:xlink="http://www.w3.org/1999/xlink" contentStyleType="text/css" height="516px" preserveAspectRatio="none" style="width:458px;height:516px;background:#FFFFFF;" version="1.1" viewBox="0 0 458 516" width="458px" zoomAndPan="magnify"><defs/><g><!--cluster sp--><g id="cluster_sp"><polygon fill="none" points="235.5,395.5,245.5,385.5,431.5,385.5,431.5,489.5,421.5,499.5,235.5,499.5,235.5,395.5" style="stroke:#181818;stroke-width:1.0;"/><line style="stroke:#181818;stroke-width:1.0;" x1="421.5" x2="431.5" y1="395.5" y2="385.5"/><line style="stroke:#181818;stroke-width:1.0;" x1="235.5" x2="421.5" y1="395.5" y2="395.5"/><line style="stroke:#181818;stroke-width:1.0;" x1="421.5" x2="421.5" y1="395.5" y2="499.5"/><text fill="#000000" font-family="sans-serif" font-size="14" font-weight="bold" lengthAdjust="spacing" textLength="120" x="269.5" y="413.4659">Serveur physique</text></g><!--entity sphp--><g id="elem_sphp"><rect fill="#F1F1F1" height="39.0679" rx="2.5" ry="2.5" style="stroke:#181818;stroke-width:0.5;" width="102" x="298.5" y="436.5"/><text fill="#000000" font-family="sans-serif" font-size="14" lengthAdjust="spacing" textLength="82" x="308.5" y="461.4659">Serveur PHP</text></g><!--entity Internet--><g id="elem_Internet"><path d="M223.6083,273.6562 C226.218,267.7968 231.4315,267.1478 235.0151,272.681 C237.6898,266.9079 241.0157,266.2418 245.4457,270.9311 C248.7037,264.2773 254.592,264.7882 258.2566,270.5103 C261.7444,266.0774 266.0968,266.9607 268.0678,272.0699 C272.4237,265.2769 278.0013,266.9651 281.3698,273.0868 C284.6023,268.3525 288.1777,267.4988 291.5442,272.953 C302.1852,276.0141 303.4263,281.4204 297.1131,290.0153 C304.3654,297.8396 301.0639,304.3981 291.4335,306.3534 C288.7322,312.1129 284.8018,312.2627 280.587,307.9897 C279.0017,315.2378 273.8063,317.0392 268.2187,312.0272 C266.6983,316.912 261.9721,318.6938 258.3967,314.1732 C253.8994,318.752 247.5484,317.6989 245.6846,311.1615 C240.2317,316.3114 236.8477,314.7157 233.917,308.5406 C229.1882,313.2117 225.0639,313.1277 222.4175,306.4337 C214.3162,302.4757 211.0811,296.2819 219.2786,289.3323 C211.8261,282.7899 214.027,275.4938 223.6083,273.6562 " fill="#F1F1F1" style="stroke:#181818;stroke-width:0.5;"/><text fill="#000000" font-family="sans-serif" font-size="14" lengthAdjust="spacing" textLength="55" x="229" y="293.4659">Internet</text></g><!--entity VPN--><g id="elem_VPN"><ellipse cx="158.5" cy="165" fill="#F1F1F1" rx="8" ry="8" style="stroke:#181818;stroke-width:0.5;"/><text fill="#000000" font-family="sans-serif" font-size="14" lengthAdjust="spacing" textLength="27" x="145" y="196.9659">VPN</text></g><!--entity c1--><g id="elem_c1"><ellipse cx="256.5" cy="14" fill="#F1F1F1" rx="8" ry="8" style="stroke:#181818;stroke-width:0.5;"/><path d="M256.5,22 L256.5,49 M243.5,30 L269.5,30 M256.5,49 L243.5,64 M256.5,49 L269.5,64 " fill="none" style="stroke:#181818;stroke-width:0.5;"/><text fill="#000000" font-family="sans-serif" font-size="14" lengthAdjust="spacing" textLength="51" x="231" y="80.4659">Client 1</text></g><!--entity c2--><g id="elem_c2"><ellipse cx="398.5" cy="14" fill="#F1F1F1" rx="8" ry="8" style="stroke:#181818;stroke-width:0.5;"/><path d="M398.5,22 L398.5,49 M385.5,30 L411.5,30 M398.5,49 L385.5,64 M398.5,49 L411.5,64 " fill="none" style="stroke:#181818;stroke-width:0.5;"/><text fill="#000000" font-family="sans-serif" font-size="14" lengthAdjust="spacing" textLength="51" x="373" y="80.4659">Client 2</text></g><!--entity c3--><g id="elem_c3"><ellipse cx="60.5" cy="14" fill="#F1F1F1" rx="8" ry="8" style="stroke:#181818;stroke-width:0.5;"/><path d="M60.5,22 L60.5,49 M47.5,30 L73.5,30 M60.5,49 L47.5,64 M60.5,49 L73.5,64 " fill="none" style="stroke:#181818;stroke-width:0.5;"/><text fill="#000000" font-family="sans-serif" font-size="14" lengthAdjust="spacing" textLength="51" x="35" y="80.4659">Client 3</text></g><!--entity n1--><g id="elem_n1"><rect fill="#F1F1F1" height="39.0679" rx="2.5" ry="2.5" style="stroke:#181818;stroke-width:0.5;" width="107" x="203" y="145.5"/><text fill="#000000" font-family="sans-serif" font-size="14" lengthAdjust="spacing" textLength="87" x="213" y="170.4659">Navigateur 1</text></g><!--entity n2--><g id="elem_n2"><rect fill="#F1F1F1" height="39.0679" rx="2.5" ry="2.5" style="stroke:#181818;stroke-width:0.5;" width="107" x="345" y="145.5"/><text fill="#000000" font-family="sans-serif" font-size="14" lengthAdjust="spacing" textLength="87" x="355" y="170.4659">Navigateur 2</text></g><!--entity n3--><g id="elem_n3"><rect fill="#F1F1F1" height="39.0679" rx="2.5" ry="2.5" style="stroke:#181818;stroke-width:0.5;" width="107" x="7" y="145.5"/><text fill="#000000" font-family="sans-serif" font-size="14" lengthAdjust="spacing" textLength="87" x="17" y="170.4659">Navigateur 3</text></g><!--link c1 to n1--><g id="link_c1_n1"><path d="M256.5,84.64 C256.5,105.07 256.5,123.22 256.5,139.47 " fill="none" id="c1-to-n1" style="stroke:#181818;stroke-width:1.0;"/><polygon fill="#181818" points="256.5,145.47,260.5,136.47,256.5,140.47,252.5,136.47,256.5,145.47" style="stroke:#181818;stroke-width:1.0;"/></g><!--link c2 to n2--><g id="link_c2_n2"><path d="M398.5,84.64 C398.5,105.07 398.5,123.22 398.5,139.47 " fill="none" id="c2-to-n2" style="stroke:#181818;stroke-width:1.0;"/><polygon fill="#181818" points="398.5,145.47,402.5,136.47,398.5,140.47,394.5,136.47,398.5,145.47" style="stroke:#181818;stroke-width:1.0;"/></g><!--link n1 to Internet--><g id="link_n1_Internet"><path d="M256.5,190.64 C256.5,211.72 256.5,234.1 256.5,257.13 " fill="none" id="n1-Internet" style="stroke:#181818;stroke-width:1.0;stroke-dasharray:7.0,7.0;"/><polygon fill="#181818" points="256.5,184.64,252.5,193.64,256.5,189.64,260.5,193.64,256.5,184.64" style="stroke:#181818;stroke-width:1.0;"/><polygon fill="#181818" points="256.5,263.13,260.5,254.13,256.5,258.13,252.5,254.13,256.5,263.13" style="stroke:#181818;stroke-width:1.0;"/><text fill="#000000" font-family="sans-serif" font-size="13" lengthAdjust="spacing" textLength="32" x="257.5" y="229.397">HTTP</text></g><!--link n2 to Internet--><g id="link_n2_Internet"><path d="M372.054,188.5325 C347.244,209.6825 315.8464,236.4279 288.8264,259.4579 " fill="none" id="n2-Internet" style="stroke:#181818;stroke-width:1.0;stroke-dasharray:7.0,7.0;"/><polygon fill="#181818" points="376.62,184.64,367.176,187.4347,372.815,187.8837,372.3659,193.5227,376.62,184.64" style="stroke:#181818;stroke-width:1.0;"/><polygon fill="#181818" points="284.26,263.35,293.7043,260.5561,288.0653,260.1066,288.5149,254.4676,284.26,263.35" style="stroke:#181818;stroke-width:1.0;"/><text fill="#000000" font-family="sans-serif" font-size="13" lengthAdjust="spacing" textLength="32" x="340.5" y="229.397">HTTP</text></g><!--link c3 to n3--><g id="link_c3_n3"><path d="M60.5,84.64 C60.5,105.07 60.5,123.22 60.5,139.47 " fill="none" id="c3-to-n3" style="stroke:#181818;stroke-width:1.0;"/><polygon fill="#181818" points="60.5,145.47,64.5,136.47,60.5,140.47,56.5,136.47,60.5,145.47" style="stroke:#181818;stroke-width:1.0;"/></g><!--link n3 to VPN--><g id="link_n3_VPN"><path d="M120.09,165 C131.89,165 131.68,165 143.48,165 " fill="none" id="n3-VPN" style="stroke:#181818;stroke-width:1.0;stroke-dasharray:7.0,7.0;"/><polygon fill="#181818" points="114.09,165,123.09,169,119.09,165,123.09,161,114.09,165" style="stroke:#181818;stroke-width:1.0;"/><polygon fill="#181818" points="149.48,165,140.48,161,144.48,165,140.48,169,149.48,165" style="stroke:#181818;stroke-width:1.0;"/></g><!--link VPN to Internet--><g id="link_VPN_Internet"><path d="M169.0162,178.9827 C183.6262,197.0227 211.1634,231.0276 233.3334,258.3976 " fill="none" id="VPN-Internet" style="stroke:#181818;stroke-width:1.0;stroke-dasharray:7.0,7.0;"/><polygon fill="#181818" points="165.24,174.32,167.7958,183.8315,168.3868,178.2056,174.0127,178.7966,165.24,174.32" style="stroke:#181818;stroke-width:1.0;"/><polygon fill="#181818" points="237.11,263.06,234.5534,253.5488,233.9629,259.1747,228.3369,258.5842,237.11,263.06" style="stroke:#181818;stroke-width:1.0;"/><text fill="#000000" font-family="sans-serif" font-size="13" lengthAdjust="spacing" textLength="32" x="211.5" y="229.397">HTTP</text></g><!--link Internet to sp--><g id="link_Internet_sp"><path d="M256.5,318.78 C256.5,330.0775 256.5,338.4275 256.5,353.6434 C256.5,361.2514 256.5,369.0759 256.5,376.8435 C256.5,378.7854 256.5,380.7237 256.5,382.6543 C256.5,383.1369 256.5,383.619 256.5,384.1006 C256.5,384.3414 256.5,378.5821 256.5,378.8226 " fill="none" id="Internet-sp" style="stroke:#181818;stroke-width:1.0;stroke-dasharray:7.0,7.0;"/><polygon fill="#181818" points="256.5,312.78,252.5,321.78,256.5,317.78,260.5,321.78,256.5,312.78" style="stroke:#181818;stroke-width:1.0;"/><polygon fill="#181818" points="256.5,384.8226,260.5,375.8226,256.5,379.8226,252.5,375.8226,256.5,384.8226" style="stroke:#181818;stroke-width:1.0;"/><text fill="#000000" font-family="sans-serif" font-size="13" lengthAdjust="spacing" textLength="32" x="257.5" y="357.397">HTTP</text></g><!--SRC=[TP0n2y8m48Nt-nL79nqg9Db4khZeKWgAUqs33THBJQ-2YF_TjAaEKWE1o_VUFIx7haLsU7RCxegLzKQpTGIW6zTNk2SsdWm3B9PuAdA0KhFpc6mRQuXH95XsgCKFbX7B7wmYLY7bChoJlBpRIycczrCIYHafff6SaM8YXKHobS7aOFnzu6tzwEojDwFSjVW436Vg_vYANJ7fTGkly6M1QPeDCsWPAmaaSBCAvMSHkCRTyLW0oNaEMiLM1QI29Hkt5kuV-nUCSfWq2cy0]--></g></svg>