<svg xmlns="http://www.w3.org/2000/svg" xmlns:xlink="http://www.w3.org/1999/xlink" contentStyleType="text/css" data-diagram-type="DESCRIPTION" height="86px" preserveAspectRatio="none" style="width:1009px;height:86px;background:#FFFFFF;" version="1.1" viewBox="0 0 1009 86" width="1009px" zoomAndPan="magnify"><defs/><g><!--entity c1--><g id="elem_c1"><ellipse cx="26.2651" cy="14" fill="#F1F1F1" rx="8" ry="8" style="stroke:#181818;stroke-width:0.5;"/><path d="M26.2651,22 L26.2651,49 M13.2651,30 L39.2651,30 M26.2651,49 L13.2651,64 M26.2651,49 L39.2651,64 " fill="#FFFFFF" fill-opacity="0.00000" style="stroke:#181818;stroke-width:0.5;"/><text fill="#000000" font-family="sans-serif" font-size="14" lengthAdjust="spacing" textLength="40.5303" x="6" y="78.4951">Client</text></g><!--entity f1--><g id="elem_f1"><rect fill="#F1F1F1" height="52.5938" rx="2.5" ry="2.5" style="stroke:#181818;stroke-width:0.5;" width="122.8877" x="186.53" y="17.35"/><text fill="#000000" font-family="sans-serif" font-size="14" lengthAdjust="spacing" textLength="44.502" x="225.7229" y="40.3451">&#160;&#160;&#160;&#160;&#160;&#160;&#160;&#160;&#160;&#160;</text><text fill="#000000" font-family="sans-serif" font-size="14" lengthAdjust="spacing" textLength="45.0352" x="227.6814" y="56.642">/        /</text></g><!--entity b1--><g id="elem_b1"><rect fill="#F1F1F1" height="52.5938" rx="2.5" ry="2.5" style="stroke:#181818;stroke-width:0.5;" width="168.6338" x="449.42" y="17.35"/><text fill="#000000" font-family="sans-serif" font-size="14" lengthAdjust="spacing" textLength="44.502" x="511.4859" y="40.3451">&#160;&#160;&#160;&#160;&#160;&#160;&#160;&#160;&#160;&#160;</text><text fill="#000000" font-family="sans-serif" font-size="14" lengthAdjust="spacing" textLength="148.6338" x="459.42" y="56.642">PHP / Java / Go / Rust</text></g><!--entity db1--><g id="elem_db1"><rect fill="#F1F1F1" height="52.5938" rx="2.5" ry="2.5" style="stroke:#181818;stroke-width:0.5;" width="245.374" x="758.05" y="17.35"/><text fill="#000000" font-family="sans-serif" font-size="14" lengthAdjust="spacing" textLength="66.7529" x="847.3605" y="40.3451">&#160;&#160;&#160;&#160;&#160;&#160;&#160;&#160;&#160;&#160;&#160;&#160;&#160;&#160;&#160;</text><text fill="#000000" font-family="sans-serif" font-size="14" lengthAdjust="spacing" textLength="225.374" x="768.05" y="56.642">PostGreSQL / MySQL / MongoDB</text></g><!--link c1 to f1--><g id="link_c1_f1"><path d="M46.76,43.65 C77.74,43.65 133.49,43.65 180.26,43.65 " fill="#FFFFFF" fill-opacity="0.00000" id="c1-to-f1" style="stroke:#181818;stroke-width:1;"/><polygon fill="#181818" points="186.26,43.65,177.26,39.65,181.26,43.65,177.26,47.65,186.26,43.65" style="stroke:#181818;stroke-width:1;"/><text fill="#000000" font-family="sans-serif" font-size="13" lengthAdjust="spacing" textLength="78.5142" x="77.53" y="39.7169">&#160;&#160;&#160;&#160;&#160;&#160;&#160;&#160;&#160;&#160;&#160;&#160;&#160;&#160;&#160;&#160;&#160;&#160;&#160;</text></g><!--reverse link c1 to f1--><g id="link_c1_f1"><path d="M51.8077,59.0547 C60.5777,63.9947 66.08,66.15 76.53,68.65 C112.45,77.24 153.38,71.73 186.13,63.72 " fill="#FFFFFF" fill-opacity="0.00000" id="c1-backto-f1" style="stroke:#181818;stroke-width:1;stroke-dasharray:7.0,7.0;"/><polygon fill="#181818" points="46.58,56.11,52.4584,64.0122,50.9364,58.5639,56.3847,57.0419,46.58,56.11" style="stroke:#181818;stroke-width:1;"/><text fill="#000000" font-family="sans-serif" font-size="13" lengthAdjust="spacing" textLength="78.5142" x="77.53" y="64.7169">&#160;&#160;&#160;&#160;&#160;&#160;&#160;&#160;&#160;&#160;&#160;&#160;&#160;&#160;&#160;&#160;&#160;&#160;&#160;</text></g><!--link f1 to b1--><g id="link_f1_b1"><path d="M309.85,43.65 C350.48,43.65 398.44,43.65 443.09,43.65 " fill="#FFFFFF" fill-opacity="0.00000" id="f1-to-b1" style="stroke:#181818;stroke-width:1;"/><polygon fill="#181818" points="449.09,43.65,440.09,39.65,444.09,43.65,440.09,47.65,449.09,43.65" style="stroke:#181818;stroke-width:1;"/><text fill="#000000" font-family="sans-serif" font-size="13" lengthAdjust="spacing" textLength="78.5142" x="340.42" y="39.7169">&#160;&#160;&#160;&#160;&#160;&#160;&#160;&#160;&#160;&#160;&#160;&#160;&#160;&#160;&#160;&#160;&#160;&#160;&#160;</text></g><!--reverse link f1 to b1--><g id="link_f1_b1"><path d="M315.6367,64.2914 C325.4467,66.7014 329.73,67.34 339.42,68.65 C374.65,73.43 384.07,72.5 419.42,68.65 C429.13,67.59 439.23,66.04 449.22,64.21 " fill="#FFFFFF" fill-opacity="0.00000" id="f1-backto-b1" style="stroke:#181818;stroke-width:1;stroke-dasharray:7.0,7.0;"/><polygon fill="#181818" points="309.81,62.86,317.5958,68.8917,314.6656,64.0529,319.5044,61.1227,309.81,62.86" style="stroke:#181818;stroke-width:1;"/><text fill="#000000" font-family="sans-serif" font-size="13" lengthAdjust="spacing" textLength="78.5142" x="340.42" y="64.7169">&#160;&#160;&#160;&#160;&#160;&#160;&#160;&#160;&#160;&#160;&#160;&#160;&#160;&#160;&#160;&#160;&#160;&#160;&#160;</text></g><!--link b1 to db1--><g id="link_b1_db1"><path d="M618.25,43.65 C660.13,43.65 705.64,43.65 751.85,43.65 " fill="#FFFFFF" fill-opacity="0.00000" id="b1-to-db1" style="stroke:#181818;stroke-width:1;"/><polygon fill="#181818" points="757.85,43.65,748.85,39.65,752.85,43.65,748.85,47.65,757.85,43.65" style="stroke:#181818;stroke-width:1;"/><text fill="#000000" font-family="sans-serif" font-size="13" lengthAdjust="spacing" textLength="78.5142" x="649.05" y="39.7169">&#160;&#160;&#160;&#160;&#160;&#160;&#160;&#160;&#160;&#160;&#160;&#160;&#160;&#160;&#160;&#160;&#160;&#160;&#160;</text></g><!--reverse link b1 to db1--><g id="link_b1_db1"><path d="M624.1518,65.2911 C634.1418,67.1211 638.34,67.59 648.05,68.65 C683.65,72.53 722.32,70.74 757.69,66.74 " fill="#FFFFFF" fill-opacity="0.00000" id="b1-backto-db1" style="stroke:#181818;stroke-width:1;stroke-dasharray:7.0,7.0;"/><polygon fill="#181818" points="618.25,64.21,626.382,69.7662,623.1682,65.1109,627.8234,61.8971,618.25,64.21" style="stroke:#181818;stroke-width:1;"/><text fill="#000000" font-family="sans-serif" font-size="13" lengthAdjust="spacing" textLength="78.5142" x="649.05" y="64.7169">&#160;&#160;&#160;&#160;&#160;&#160;&#160;&#160;&#160;&#160;&#160;&#160;&#160;&#160;&#160;&#160;&#160;&#160;&#160;</text></g><!--SRC=[VP1D3u8m38Rl_8g6knYl7aZyI3164_muUXdRmCMncL6C_dlB11CZi4FRjE_pjfcMEG9QSAgu8WZb94TbJL3TbBapnqeGCcUrnhDyuaAhmfJI870AqWK1usWTX2kjg142gu3Fg5iqcX2-xsBQOWg_XKVoVYJTf2JRiWUZb5WAnxhwBCdwY0wp5IPEdWux8lQlDbjJsFNImwAX-GmcCMsU_pduiuBSpxF1UURd8XipYEeeflyOiV2AuID49nbSymO0]--></g></svg>