<svg xmlns="http://www.w3.org/2000/svg" xmlns:xlink="http://www.w3.org/1999/xlink" contentStyleType="text/css" data-diagram-type="DESCRIPTION" height="654px" preserveAspectRatio="none" style="width:868px;height:654px;background:#FFFFFF;" version="1.1" viewBox="0 0 868 654" width="868px" zoomAndPan="magnify"><defs/><g><!--cluster user_home--><g id="cluster_user_home"><rect fill="#0000FF" fill-opacity="0.08235" height="257.89" rx="2.5" ry="2.5" style="stroke:#0000FF;stroke-width:1;stroke-dasharray:7.0,7.0;" width="280" x="7" y="7"/><line style="stroke:#0000FF;stroke-width:1;stroke-dasharray:7.0,7.0;" x1="7" x2="287" y1="27.2969" y2="27.2969"/><text fill="#0000FF" font-family="sans-serif" font-size="14" font-weight="bold" lengthAdjust="spacing" textLength="176.3398" x="58.8301" y="21.9951">Maison de l'utilisateur</text></g><!--cluster company--><g id="cluster_company"><path d="M331.1896,158.5047 C341.2655,142.5155 351.0311,140.121 362.7931,156.8774 C373.9745,142.7371 386.5781,141.1948 397.4307,157.2545 C409.2314,139.5624 424.3297,141.0465 434.9803,158.4838 C446.9936,138.9592 461.1654,141.2162 473.3364,158.3186 C483.7824,140.6204 496.7932,139.9642 509.4583,155.9381 C521.7975,141.9761 537.4344,141.8214 545.5395,160.6038 C551.3958,145.7623 565.2981,141.8661 576.8229,154.0397 C590.1108,134.8201 605.5904,133.5139 616.8714,155.9682 C627.6633,141.5597 639.9207,142.9318 648.1758,158.6078 C661.4345,141.572 678.3462,142.8517 688.7386,161.8356 C695.6677,144.4808 708.9807,145.1308 719.3507,158.3956 C731.3628,143.3511 744.4249,143.4057 755.8925,159.044 C765.8877,141.9048 782.9814,140.9046 794.8942,156.7784 C809.439,140.9476 825.365,144.2624 833,164.15 C836.9846,163.9346 838.4608,166.5279 837.2194,170.05 C855.4976,178.8607 852.2843,195.8194 837.3116,204.7185 C852.2574,215.2911 852.9465,227.4067 839.0416,239.4177 C858.3836,250.6036 857.6872,267.7097 839.6408,279.455 C859.2328,290.4101 858.4458,305.4052 839.5732,316.2897 C857.0214,325.9808 855.7502,341.1941 840.9597,352.1323 C860.7098,365.31 858.571,377.2869 841.9208,391.3565 C861.4023,402.0198 858.8377,417.1148 842.0933,427.9489 C860.9221,437.4758 861.1396,452.8292 843.0254,463.3294 C861.0241,475.3363 855.446,491.6518 837.9766,498.5783 C861.417,508.8671 857.0455,526.0811 841.3295,539.5725 C855.1356,551.5542 852.9257,566.4579 835.093,572.4354 C851.1662,587.3121 846.0756,607.9112 826,615.08 C826.4291,614.8254 826.6861,615.0108 826.755,615.4642 C820.5554,630.4364 807.3845,633.8139 795.2324,622.6409 C780.4513,642.2794 768.362,637.1467 755.8641,620.185 C747.573,636.1729 732.3418,639.6351 720.3888,624.3373 C709.8547,641.3844 693.6662,639.6901 684.6736,622.7189 C678.3786,641.6151 663.203,643.7861 651.7304,627.5777 C641.3691,645.0026 627.4499,641.0615 618.1328,626.4815 C606.7144,644.4164 594.3975,647.2957 581.3697,628.0739 C567.5798,646.6001 554.9607,642.1418 544.8709,624.3549 C534.2555,642.177 521.9496,647.0702 507.3357,628.4763 C494.7633,644.2272 485.3071,639.9279 475.3897,625.6517 C462.233,641.0927 443.9812,644.5186 435.074,621.2284 C425.7078,640.9284 410.4366,637.8676 399.6656,622.653 C389.2202,640.6957 376.8694,636.1084 366.6115,622.4576 C347.4137,640.7139 323.6541,637.9852 319,608.08 C319.9777,607.5633 320.7951,607.9902 320.8976,609.1007 C305.0997,599.597 303.3468,582.6544 320.5124,572.801 C302.7165,561.4688 302.6576,548.3807 320.7521,537.2908 C302.5017,524.032 303.1211,511.1343 321.8651,498.9493 C299.8697,488.031 301.4755,475.5869 318.0038,460.7722 C302.8544,451.3282 303.2241,434.4236 318.4057,425.3234 C304.8008,416.1487 301.3514,402.0571 318.1062,392.6044 C295.6266,381.7546 298.081,362.3657 317.1943,350.6127 C301.8316,340.5345 303.1733,327.2034 317.2801,317.2009 C298.2895,303.6062 301.9911,284.5889 322.6143,276.1406 C303.0518,268.4223 300.5077,255.1295 317.2361,241.7378 C303.835,227.1971 305.9509,216.759 323.041,207.3681 C301.912,189.2105 301.7652,172.6346 326,157.15 C328.3742,154.8783 330.132,155.7327 331.1896,158.5047 " fill="#FF0000" fill-opacity="0.08235" style="stroke:#FF0000;stroke-width:1;"/><text fill="#FF0000" font-family="sans-serif" font-size="14" font-weight="bold" lengthAdjust="spacing" textLength="82.1748" x="534.9126" y="175.1451">Entreprise</text></g><!--cluster sp1--><g id="cluster_sp1"><polygon fill="#FFFFFF" fill-opacity="0.00000" points="335,335.89,345,325.89,564,325.89,564,589.08,554,599.08,335,599.08,335,335.89" style="stroke:#181818;stroke-width:1;"/><line style="stroke:#181818;stroke-width:1;" x1="554" x2="564" y1="335.89" y2="325.89"/><line style="stroke:#181818;stroke-width:1;" x1="335" x2="554" y1="335.89" y2="335.89"/><line style="stroke:#181818;stroke-width:1;" x1="554" x2="554" y1="335.89" y2="599.08"/><text fill="#000000" font-family="sans-serif" font-size="14" font-weight="bold" lengthAdjust="spacing" textLength="153.1934" x="368.9033" y="351.8851">Serveur physique 1</text></g><!--cluster sa1--><g id="cluster_sa1"><rect fill="#FFFFFF" fill-opacity="0.00000" height="103.6" rx="2.5" ry="2.5" style="stroke:#181818;stroke-width:1;" width="158" x="382" y="373.89"/><line style="stroke:#181818;stroke-width:1;" x1="382" x2="540" y1="394.1869" y2="394.1869"/><text fill="#000000" font-family="sans-serif" font-size="14" font-weight="bold" lengthAdjust="spacing" textLength="142.6523" x="389.6738" y="388.8851">Serveur Applicatif</text></g><!--cluster sp2--><g id="cluster_sp2"><polygon fill="#FFFFFF" fill-opacity="0.00000" points="588,335.89,598,325.89,817,325.89,817,589.08,807,599.08,588,599.08,588,335.89" style="stroke:#181818;stroke-width:1;"/><line style="stroke:#181818;stroke-width:1;" x1="807" x2="817" y1="335.89" y2="325.89"/><line style="stroke:#181818;stroke-width:1;" x1="588" x2="807" y1="335.89" y2="335.89"/><line style="stroke:#181818;stroke-width:1;" x1="807" x2="807" y1="335.89" y2="599.08"/><text fill="#000000" font-family="sans-serif" font-size="14" font-weight="bold" lengthAdjust="spacing" textLength="153.1934" x="621.9033" y="351.8851">Serveur physique 2</text></g><!--cluster sa2--><g id="cluster_sa2"><rect fill="#FFFFFF" fill-opacity="0.00000" height="103.6" rx="2.5" ry="2.5" style="stroke:#181818;stroke-width:1;" width="158" x="612" y="373.89"/><line style="stroke:#181818;stroke-width:1;" x1="612" x2="770" y1="394.1869" y2="394.1869"/><text fill="#000000" font-family="sans-serif" font-size="14" font-weight="bold" lengthAdjust="spacing" textLength="142.6523" x="619.6738" y="388.8851">Serveur Applicatif</text></g><!--entity user--><g id="elem_user"><ellipse cx="147.0049" cy="50.5" fill="#F1F1F1" rx="8" ry="8" style="stroke:#181818;stroke-width:0.5;"/><path d="M147.0049,58.5 L147.0049,85.5 M134.0049,66.5 L160.0049,66.5 M147.0049,85.5 L134.0049,100.5 M147.0049,85.5 L160.0049,100.5 " fill="#FFFFFF" fill-opacity="0.00000" style="stroke:#181818;stroke-width:0.5;"/><text fill="#000000" font-family="sans-serif" font-size="14" lengthAdjust="spacing" textLength="72.0098" x="111" y="114.9951">Utilisateur</text></g><!--entity browser--><g id="elem_browser"><path d="M25.92,178.3 L66.92,178.3 A3.75,3.75 0 0 1 69.42,180.8 L76.42,199.3 L268.0772,199.3 A2.5,2.5 0 0 1 270.5772,201.8 L270.5772,246.3938 A2.5,2.5 0 0 1 268.0772,248.8938 L25.92,248.8938 A2.5,2.5 0 0 1 23.42,246.3938 L23.42,180.8 A2.5,2.5 0 0 1 25.92,178.3 " fill="#F1F1F1" style="stroke:#181818;stroke-width:0.5;"/><line style="stroke:#181818;stroke-width:0.5;" x1="23.42" x2="76.42" y1="199.3" y2="199.3"/><text fill="#000000" font-family="sans-serif" font-size="14" font-weight="bold" lengthAdjust="spacing" textLength="217.1572" x="33.42" y="219.2951">PC avec un navigateur Web</text><text fill="#000000" font-family="sans-serif" font-size="14" lengthAdjust="spacing" textLength="93.5156" x="95.7227" y="235.592">158.78.235.6</text></g><!--entity lb--><g id="elem_lb"><polygon fill="#F1F1F1" points="696.57,213.6,604.29,184.15,419.71,184.15,327.43,213.6,419.71,243.04,604.29,243.04,696.57,213.6" style="stroke:#181818;stroke-width:0.5;"/><text fill="#000000" font-family="sans-serif" font-size="14" font-weight="bold" lengthAdjust="spacing" textLength="184.5703" x="419.7152" y="202.1451">R&#233;partisseur de charge</text><text fill="#000000" font-family="sans-serif" font-size="14" lengthAdjust="spacing" textLength="110.0791" x="455.3167" y="218.442">(Load balancer)</text><text fill="#000000" font-family="sans-serif" font-size="14" lengthAdjust="spacing" textLength="66.7939" x="477.5677" y="234.7389">10.3.15.5</text></g><!--entity db1--><g id="elem_db1"><path d="M392.15,531.49 C392.15,521.49 470.0035,521.49 470.0035,521.49 C470.0035,521.49 547.857,521.49 547.857,531.49 L547.857,573.0838 C547.857,583.0838 470.0035,583.0838 470.0035,583.0838 C470.0035,583.0838 392.15,583.0838 392.15,573.0838 L392.15,531.49 " fill="#F1F1F1" style="stroke:#181818;stroke-width:0.5;"/><path d="M392.15,531.49 C392.15,541.49 470.0035,541.49 470.0035,541.49 C470.0035,541.49 547.857,541.49 547.857,531.49 " fill="#FFFFFF" fill-opacity="0.00000" style="stroke:#181818;stroke-width:0.5;"/><text fill="#000000" font-family="sans-serif" font-size="14" font-weight="bold" lengthAdjust="spacing" textLength="135.707" x="402.15" y="558.4851">Base de Donn&#233;es</text><text fill="#000000" font-family="sans-serif" font-size="14" lengthAdjust="spacing" textLength="75.7012" x="428.8512" y="574.782">10.3.17.50</text></g><!--entity api1--><g id="elem_api1"><rect fill="#F1F1F1" height="52.5938" rx="2.5" ry="2.5" style="stroke:#181818;stroke-width:0.5;" width="95.7012" x="423.15" y="408.89"/><text fill="#000000" font-family="sans-serif" font-size="14" font-weight="bold" lengthAdjust="spacing" textLength="71.1553" x="433.15" y="431.8851">API REST</text><text fill="#000000" font-family="sans-serif" font-size="14" lengthAdjust="spacing" textLength="75.7012" x="433.15" y="448.182">10.3.17.20</text></g><!--entity db2--><g id="elem_db2"><path d="M604.15,531.49 C604.15,521.49 682.0035,521.49 682.0035,521.49 C682.0035,521.49 759.857,521.49 759.857,531.49 L759.857,573.0838 C759.857,583.0838 682.0035,583.0838 682.0035,583.0838 C682.0035,583.0838 604.15,583.0838 604.15,573.0838 L604.15,531.49 " fill="#F1F1F1" style="stroke:#181818;stroke-width:0.5;"/><path d="M604.15,531.49 C604.15,541.49 682.0035,541.49 682.0035,541.49 C682.0035,541.49 759.857,541.49 759.857,531.49 " fill="#FFFFFF" fill-opacity="0.00000" style="stroke:#181818;stroke-width:0.5;"/><text fill="#000000" font-family="sans-serif" font-size="14" font-weight="bold" lengthAdjust="spacing" textLength="135.707" x="614.15" y="558.4851">Base de Donn&#233;es</text><text fill="#000000" font-family="sans-serif" font-size="14" lengthAdjust="spacing" textLength="75.7012" x="640.8512" y="574.782">10.3.17.51</text></g><!--entity api2--><g id="elem_api2"><rect fill="#F1F1F1" height="52.5938" rx="2.5" ry="2.5" style="stroke:#181818;stroke-width:0.5;" width="95.7012" x="631.15" y="408.89"/><text fill="#000000" font-family="sans-serif" font-size="14" font-weight="bold" lengthAdjust="spacing" textLength="71.1553" x="641.15" y="431.8851">API REST</text><text fill="#000000" font-family="sans-serif" font-size="14" lengthAdjust="spacing" textLength="75.7012" x="641.15" y="448.182">10.3.17.21</text></g><!--entity internet--><g id="elem_internet"><path d="M214.8518,420.9206 C217.9475,415.8866 221.8761,415.6214 225.6835,420.1112 C228.7915,413.9393 233.1358,414.04 237.3775,418.9107 C240.2935,413.5881 244.5613,413.1107 248.1413,418.226 C251.8898,413.3016 255.7467,412.201 259.734,417.967 C264.7772,412.7037 269.0082,412.8524 271.8507,420.0986 C275.9083,414.9311 280.5661,415.2056 284.2525,420.5371 C291.5904,423.3766 293.3277,430.7327 287.0129,436.0081 C292.8175,442.4097 292.663,447.4933 284.667,451.8516 C282.7128,458.0122 277.179,458.4202 273.4302,453.7058 C270.4904,461.9791 266.0231,463.0211 259.8992,456.6474 C258.9668,462.3636 254.2734,464.5466 249.3854,461.2741 C244.7873,465.4723 239.5043,464.9324 237.5421,458.3724 C231.0223,463.2078 227.7972,460.5737 225.5899,453.8955 C221.3816,458.3511 216.3143,457.8827 213.6427,452.102 C203.9847,451.1293 200.7638,443.9059 207.3599,436.4208 C201.2429,427.4385 204.3357,421.8635 214.8518,420.9206 " fill="#F1F1F1" style="stroke:#181818;stroke-width:0.5;"/><text fill="#000000" font-family="sans-serif" font-size="14" lengthAdjust="spacing" textLength="55.8359" x="220.08" y="440.0351">Internet</text></g><!--link user to browser--><g id="link_user_browser"><path d="M135.37,118.47 C133.8,137.14 133.315,174.6267 135.045,192.9167 " fill="#FFFFFF" fill-opacity="0.00000" id="user-to-browser" style="stroke:#181818;stroke-width:1;"/><polygon fill="#181818" points="135.61,198.89,138.7447,189.5533,135.1392,193.9122,130.7803,190.3067,135.61,198.89" style="stroke:#181818;stroke-width:1;"/></g><!--link browser to user--><g id="link_browser_user"><path d="M159.06,198.89 C160.89,180.6 161.5146,143.1161 159.8446,124.4461 " fill="#FFFFFF" fill-opacity="0.00000" id="browser-to-user" style="stroke:#181818;stroke-width:1;"/><polygon fill="#181818" points="159.31,118.47,156.1277,127.7906,159.7555,123.4501,164.0959,127.0778,159.31,118.47" style="stroke:#181818;stroke-width:1;"/></g><!--link browser to internet--><g id="link_browser_internet"><path d="M163,249.39 C183.92,294.86 217.4424,367.7591 235.1124,406.1691 " fill="#FFFFFF" fill-opacity="0.00000" id="browser-to-internet" style="stroke:#181818;stroke-width:1;"/><polygon fill="#181818" points="237.62,411.62,237.4925,401.772,235.5303,407.0776,230.2247,405.1154,237.62,411.62" style="stroke:#181818;stroke-width:1;"/></g><!--link internet to browser--><g id="link_internet_browser"><path d="M234.89,411.74 C220.83,387.2 198.34,346.48 182,309.89 C173.16,290.1 166.6978,272.9981 160.3378,254.6781 " fill="#FFFFFF" fill-opacity="0.00000" id="internet-to-browser" style="stroke:#181818;stroke-width:1;"/><polygon fill="#181818" points="158.37,249.01,157.5429,258.8241,160.0098,253.7335,165.1004,256.2004,158.37,249.01" style="stroke:#181818;stroke-width:1;"/></g><!--link internet to lb--><g id="link_internet_lb"><path d="M269.55,411.93 C295,386.08 339.05,342.67 380,308.89 C408.35,285.5 437.1469,264.8463 463.4169,246.8863 " fill="#FFFFFF" fill-opacity="0.00000" id="internet-to-lb" style="stroke:#181818;stroke-width:1;"/><polygon fill="#181818" points="468.37,243.5,458.6828,245.2774,464.2424,246.3219,463.1979,251.8815,468.37,243.5" style="stroke:#181818;stroke-width:1;"/></g><!--link lb to internet--><g id="link_lb_internet"><path d="M477.22,243.53 C423.87,287.9 327.6025,367.9728 279.4725,408.0128 " fill="#FFFFFF" fill-opacity="0.00000" id="lb-to-internet" style="stroke:#181818;stroke-width:1;"/><polygon fill="#181818" points="274.86,411.85,284.337,409.1692,278.7038,408.6523,279.2207,403.0191,274.86,411.85" style="stroke:#181818;stroke-width:1;"/></g><!--link lb to api1--><g id="link_lb_api1"><path d="M506.64,243.3 C498.59,286.43 484.5907,361.3918 476.8907,402.6518 " fill="#FFFFFF" fill-opacity="0.00000" id="lb-to-api1" style="stroke:#181818;stroke-width:1;"/><polygon fill="#181818" points="475.79,408.55,481.3732,400.4366,476.7073,403.6349,473.509,398.9689,475.79,408.55" style="stroke:#181818;stroke-width:1;"/></g><!--link api1 to lb--><g id="link_api1_lb"><path d="M478.81,408.74 C486.17,383.79 496.94,344.57 503,309.89 C506.86,287.79 508.7366,268.4857 510.0466,249.5157 " fill="#FFFFFF" fill-opacity="0.00000" id="api1-to-lb" style="stroke:#181818;stroke-width:1;"/><polygon fill="#181818" points="510.46,243.53,505.8495,252.233,510.1155,248.5181,513.8305,252.7842,510.46,243.53" style="stroke:#181818;stroke-width:1;"/></g><!--link lb to api2--><g id="link_lb_api2"><path d="M533.83,243.3 C566.63,286.43 624.4879,362.5143 655.8679,403.7743 " fill="#FFFFFF" fill-opacity="0.00000" id="lb-to-api2" style="stroke:#181818;stroke-width:1;"/><polygon fill="#181818" points="659.5,408.55,657.2356,398.965,656.4732,404.5702,650.868,403.8078,659.5,408.55" style="stroke:#181818;stroke-width:1;"/></g><!--link api2 to lb--><g id="link_api2_lb"><path d="M662.65,408.66 C645.9,382.93 618.74,342.35 593,308.89 C575.5,286.14 558.306,266.0646 541.996,247.7146 " fill="#FFFFFF" fill-opacity="0.00000" id="api2-to-lb" style="stroke:#181818;stroke-width:1;"/><polygon fill="#181818" points="538.01,243.23,540.9993,252.6142,541.3317,246.9672,546.9788,247.2995,538.01,243.23" style="stroke:#181818;stroke-width:1;"/></g><!--link api1 to db1--><g id="link_api1_db1"><path d="M459.97,461.73 C457.42,479.35 456.4366,496.8604 458.3066,515.3604 " fill="#FFFFFF" fill-opacity="0.00000" id="api1-to-db1" style="stroke:#181818;stroke-width:1;"/><polygon fill="#181818" points="458.91,521.33,461.9846,511.9734,458.4072,516.3553,454.0252,512.7779,458.91,521.33" style="stroke:#181818;stroke-width:1;"/></g><!--reverse link api1 to db1--><g id="link_api1_db1"><path d="M483.0265,467.6756 C485.4165,485.2956 484.59,502.83 482.27,521.33 " fill="#FFFFFF" fill-opacity="0.00000" id="api1-backto-db1" style="stroke:#181818;stroke-width:1;"/><polygon fill="#181818" points="482.22,461.73,479.466,471.186,482.8921,466.6846,487.3934,470.1107,482.22,461.73" style="stroke:#181818;stroke-width:1;"/></g><!--link api2 to db2--><g id="link_api2_db2"><path d="M668.86,461.73 C666.92,479.35 666.5402,496.8849 669.0602,515.3849 " fill="#FFFFFF" fill-opacity="0.00000" id="api2-to-db2" style="stroke:#181818;stroke-width:1;"/><polygon fill="#181818" points="669.87,521.33,672.6187,511.8725,669.1952,516.3758,664.6919,512.9522,669.87,521.33" style="stroke:#181818;stroke-width:1;"/></g><!--reverse link api2 to db2--><g id="link_api2_db2"><path d="M692.1138,467.6454 C695.1038,485.2654 694.91,502.83 693.23,521.33 " fill="#FFFFFF" fill-opacity="0.00000" id="api2-backto-db2" style="stroke:#181818;stroke-width:1;"/><polygon fill="#181818" points="691.11,461.73,688.6721,471.2724,691.9465,466.6595,696.5593,469.9339,691.11,461.73" style="stroke:#181818;stroke-width:1;"/></g><!--SRC=[dPF1Jjmm48RlUOhHScYxKg9rK00L2Ocs791Q2K5HBvNG99viB7bjrtOMKCK3yHoyM6qdMHPQf88FiJsU-MU-iUEr0Q-Xrjxh5N1XgV52gonhq7AOVKFXj09E8D_rNaZXq5DlPu0EUaVsgjChWfr566tBgaCf57siPKzfLN1q7V53JpS-MU5tXetN5cQN_n3BMYqvXSFv_Empu9eQw1KeN8jbSeGVLC_dFnKy6QmwAFOFYdAtAlQIL6trTLIx2n1Izu7YL7coYdmw5kDcStgYl2LZXQDqtkYLGNKBEsqRiIOeEt64HS3ew0QNeJEXrlE7UuFM2-TYZQ5LJOTsITkLll-gaKED4bL3ziCp1BOeTWjM5LNAB-iiKph8p2x8hgEawMwT-1MwnvA3ComK40E7EvhSZesHea4lsi4D9xSuuhsYMagA5H-VdSBvoSNtMEAGVBye5oaAZM0fw2vzENgiqQMeJt4ETNtHIZtSati4d3IgGOFNB3R_1OXoX2Z_3w9y5GIR8CgtGx0HeWmG0IE-JCYvlbRvqUPjZJFaUJ1kNjIq6CpX8cKzB5DNjpPb5YqRrTYmQDqob5aMh93tPWeFjiVj933c6OAV9NsXhByHZjBVzmS0]--></g></svg>